<?xml version="1.0" encoding="UTF-8" standalone="no"?>
<!-- Created with Inkscape (http://www.inkscape.org/) -->

<svg
   xmlns:dc="http://purl.org/dc/elements/1.1/"
   xmlns:cc="http://creativecommons.org/ns#"
   xmlns:rdf="http://www.w3.org/1999/02/22-rdf-syntax-ns#"
   xmlns:svg="http://www.w3.org/2000/svg"
   xmlns="http://www.w3.org/2000/svg"
   xmlns:sodipodi="http://sodipodi.sourceforge.net/DTD/sodipodi-0.dtd"
   xmlns:inkscape="http://www.inkscape.org/namespaces/inkscape"
   width="51.007736mm"
   height="51.00774mm"
   viewBox="0 0 180.73607 180.73609"
   id="svg4772"
   version="1.1"
   inkscape:version="0.91 r"
   sodipodi:docname="status.svg">
  <defs
     id="defs4774" />
  <sodipodi:namedview
     id="base"
     pagecolor="#ffffff"
     bordercolor="#666666"
     borderopacity="1.0"
     inkscape:pageopacity="0.0"
     inkscape:pageshadow="2"
     inkscape:zoom="1.979899"
     inkscape:cx="106.29769"
     inkscape:cy="58.544511"
     inkscape:document-units="px"
     inkscape:current-layer="layer1"
     showgrid="false"
     fit-margin-top="0"
     fit-margin-left="0"
     fit-margin-right="0"
     fit-margin-bottom="0"
     inkscape:window-width="1600"
     inkscape:window-height="848"
     inkscape:window-x="0"
     inkscape:window-y="0"
     inkscape:window-maximized="1" />
  <metadata
     id="metadata4777">
    <rdf:RDF>
      <cc:Work
         rdf:about="">
        <dc:format>image/svg+xml</dc:format>
        <dc:type
           rdf:resource="http://purl.org/dc/dcmitype/StillImage" />
        <dc:title></dc:title>
      </cc:Work>
    </rdf:RDF>
  </metadata>
  <g
     inkscape:label="Layer 1"
     inkscape:groupmode="layer"
     id="layer1"
     transform="translate(130.36804,-176.27987)">
    <rect
       style="color:#000000;clip-rule:nonzero;display:inline;overflow:visible;visibility:visible;opacity:1;isolation:auto;mix-blend-mode:normal;color-interpolation:sRGB;color-interpolation-filters:linearRGB;solid-color:#000000;solid-opacity:1;fill:#f9f9f9;fill-opacity:1;fill-rule:evenodd;stroke:none;stroke-width:7;stroke-linecap:butt;stroke-linejoin:miter;stroke-miterlimit:4;stroke-dasharray:none;stroke-dashoffset:0;stroke-opacity:1;color-rendering:auto;image-rendering:auto;shape-rendering:auto;text-rendering:auto;enable-background:accumulate"
       id="rect4557-0"
       width="164.28769"
       height="100.11612"
       x="-122.34834"
       y="184.53181" />
    <rect
       y="286.34589"
       x="-38.282726"
       height="63.303825"
       width="81.102814"
       id="rect4272-6-7-2-21"
       style="color:#000000;clip-rule:nonzero;display:inline;overflow:visible;visibility:visible;opacity:1;isolation:auto;mix-blend-mode:normal;color-interpolation:sRGB;color-interpolation-filters:linearRGB;solid-color:#000000;solid-opacity:1;fill:#efe75e;fill-opacity:1;fill-rule:evenodd;stroke:none;stroke-width:10;stroke-linecap:round;stroke-linejoin:miter;stroke-miterlimit:4;stroke-dasharray:none;stroke-dashoffset:0;stroke-opacity:0.84868421;color-rendering:auto;image-rendering:auto;shape-rendering:auto;text-rendering:auto;enable-background:accumulate" />
    <rect
       y="286.34589"
       x="-122.86043"
       height="62.675148"
       width="82.102814"
       id="rect4272-6-70-5"
       style="color:#000000;clip-rule:nonzero;display:inline;overflow:visible;visibility:visible;opacity:1;isolation:auto;mix-blend-mode:normal;color-interpolation:sRGB;color-interpolation-filters:linearRGB;solid-color:#000000;solid-opacity:1;fill:#ff1717;fill-opacity:1;fill-rule:evenodd;stroke:none;stroke-width:10;stroke-linecap:round;stroke-linejoin:miter;stroke-miterlimit:4;stroke-dasharray:none;stroke-dashoffset:0;stroke-opacity:0.84868421;color-rendering:auto;image-rendering:auto;shape-rendering:auto;text-rendering:auto;enable-background:accumulate" />
    <rect
       y="184.02988"
       x="-122.29976"
       height="99.487587"
       width="40.5"
       id="rect4272-9-6"
       style="color:#000000;clip-rule:nonzero;display:inline;overflow:visible;visibility:visible;opacity:1;isolation:auto;mix-blend-mode:normal;color-interpolation:sRGB;color-interpolation-filters:linearRGB;solid-color:#000000;solid-opacity:1;fill:#3aa00e;fill-opacity:1;fill-rule:evenodd;stroke:none;stroke-width:10;stroke-linecap:round;stroke-linejoin:miter;stroke-miterlimit:4;stroke-dasharray:none;stroke-dashoffset:0;stroke-opacity:0.84868421;color-rendering:auto;image-rendering:auto;shape-rendering:auto;text-rendering:auto;enable-background:accumulate" />
    <path
       inkscape:connector-curvature="0"
       id="rect4701-2"
       style="color:#000000;clip-rule:nonzero;display:inline;overflow:visible;visibility:visible;opacity:1;isolation:auto;mix-blend-mode:normal;color-interpolation:sRGB;color-interpolation-filters:linearRGB;solid-color:#000000;solid-opacity:1;fill:none;fill-opacity:1;fill-rule:evenodd;stroke:#328a0c;stroke-width:7.99999952;stroke-linecap:butt;stroke-linejoin:miter;stroke-miterlimit:4;stroke-dasharray:none;stroke-dashoffset:0;stroke-opacity:1;color-rendering:auto;image-rendering:auto;shape-rendering:auto;text-rendering:auto;enable-background:accumulate"
       d="m -105.72485,181.56626 131.49261,0 c 10.80505,0 19.50369,8.69865 19.50369,19.5037 l 0,64.49261 c 0,10.80505 -8.69864,19.50369 -19.50369,19.50369 l -131.49261,0 c -10.80505,0 -19.5037,-8.69864 -19.5037,-19.50369 l 0,-64.49261 c 0,-10.80505 8.69865,-19.5037 19.5037,-19.5037 z m 85.32597,103.7589 46.24261,0 c 10.80505,0 19.5037,8.69865 19.5037,19.50369 l 0,27.49262 c 0,10.80504 -8.69865,19.50369 -19.5037,19.50369 l -46.24261,0 c -10.80505,0 -19.50369,-8.69865 -19.50369,-19.50369 l 0,-27.49262 c 0,-10.80504 8.69864,-19.50369 19.50369,-19.50369 z m -85.34743,0 46.24262,0 c 10.80504,0 19.50369,8.69865 19.50369,19.50369 l 0,27.49262 c 0,10.80504 -8.69865,19.50369 -19.50369,19.50369 l -46.24262,0 c -10.80504,0 -19.50369,-8.69865 -19.50369,-19.50369 l 0,-27.49262 c 0,-10.80504 8.69865,-19.50369 19.50369,-19.50369 z m 2.12827,-105.04529 127.23608,0 c 12.6035,0 22.75,10.1465 22.75,22.75 l 0,127.23609 c 0,12.6035 -10.1465,22.75 -22.75,22.75 l -127.23608,0 c -12.6035,0 -22.75,-10.1465 -22.75,-22.75 l 0,-127.23609 c 0,-12.6035 10.1465,-22.75 22.75,-22.75 z M -40,353.52103 c 0,-64.89558 0,-65.97718 0,-65.97718 l 0,0 m -87.37819,-2.89594 c 173.74624,0 174.75639,0 174.75639,0" />
  </g>
</svg>
