<?xml version="1.0" encoding="UTF-8" standalone="no"?>
<!-- Created with Inkscape (http://www.inkscape.org/) -->

<svg
   xmlns:dc="http://purl.org/dc/elements/1.1/"
   xmlns:cc="http://creativecommons.org/ns#"
   xmlns:rdf="http://www.w3.org/1999/02/22-rdf-syntax-ns#"
   xmlns:svg="http://www.w3.org/2000/svg"
   xmlns="http://www.w3.org/2000/svg"
   xmlns:sodipodi="http://sodipodi.sourceforge.net/DTD/sodipodi-0.dtd"
   xmlns:inkscape="http://www.inkscape.org/namespaces/inkscape"
   width="287.69354mm"
   height="115.41923mm"
   viewBox="0 0 1019.3866 408.96576"
   id="svg4378"
   version="1.1"
   inkscape:version="0.91 r"
   sodipodi:docname="logo.svg"
   inkscape:export-filename="/home/tobias/git/mtn-huts/main/static/logo.png"
   inkscape:export-xdpi="147.08482"
   inkscape:export-ydpi="147.08482">
  <defs
     id="defs4380">
    <clipPath
       clipPathUnits="userSpaceOnUse"
       id="clipPath4178">
      <path
         style="color:#000000;clip-rule:nonzero;display:inline;overflow:visible;visibility:visible;opacity:1;isolation:auto;mix-blend-mode:normal;color-interpolation:sRGB;color-interpolation-filters:linearRGB;solid-color:#000000;solid-opacity:1;fill:#808080;fill-opacity:1;fill-rule:evenodd;stroke:none;stroke-width:5;stroke-linecap:round;stroke-linejoin:round;stroke-miterlimit:4;stroke-dasharray:none;stroke-dashoffset:0;stroke-opacity:0.84868421;color-rendering:auto;image-rendering:auto;shape-rendering:auto;text-rendering:auto;enable-background:accumulate"
         d="m 389.22112,843.46486 0,360.62504 201.83203,0 a 151.52289,151.52289 0 0 0 115.35742,53.5371 151.52289,151.52289 0 0 0 115.54492,-53.5371 l 254.16991,0 0,-360.62504 -686.90428,0 z"
         id="path4180"
         inkscape:connector-curvature="0" />
    </clipPath>
    <filter
       inkscape:menu-tooltip="In and out glow with a possible offset and colorizable flood"
       inkscape:menu="Shadows and Glows"
       inkscape:label="Cutout Glow"
       style="color-interpolation-filters:sRGB"
       id="filter4191">
      <feOffset
         dy="3"
         dx="3"
         id="feOffset4193" />
      <feGaussianBlur
         stdDeviation="3"
         result="blur"
         id="feGaussianBlur4195" />
      <feFlood
         flood-color="rgb(0,0,0)"
         flood-opacity="1"
         result="flood"
         id="feFlood4197" />
      <feComposite
         in="flood"
         in2="SourceGraphic"
         operator="in"
         result="composite"
         id="feComposite4199" />
      <feBlend
         in="blur"
         in2="composite"
         mode="normal"
         id="feBlend4201" />
    </filter>
    <filter
       inkscape:collect="always"
       style="color-interpolation-filters:sRGB"
       id="filter4576"
       x="-0.059764273"
       width="1.1195285"
       y="-0.060237594"
       height="1.1204752">
      <feGaussianBlur
         inkscape:collect="always"
         stdDeviation="1.9899063"
         id="feGaussianBlur4578" />
    </filter>
    <filter
       inkscape:collect="always"
       style="color-interpolation-filters:sRGB"
       id="filter4592"
       x="-0.10321618"
       width="1.2064323"
       y="-0.14330214"
       height="1.2866043">
      <feGaussianBlur
         inkscape:collect="always"
         stdDeviation="1.6016527"
         id="feGaussianBlur4594" />
    </filter>
    <filter
       inkscape:collect="always"
       style="color-interpolation-filters:sRGB"
       id="filter4644"
       x="-0.062773913"
       width="1.1255478"
       y="-0.057460863"
       height="1.1149217">
      <feGaussianBlur
         inkscape:collect="always"
         stdDeviation="1.5789479"
         id="feGaussianBlur4646" />
    </filter>
  </defs>
  <sodipodi:namedview
     id="base"
     pagecolor="#ffffff"
     bordercolor="#666666"
     borderopacity="1.0"
     inkscape:pageopacity="0.0"
     inkscape:pageshadow="2"
     inkscape:zoom="0.49497475"
     inkscape:cx="418.42541"
     inkscape:cy="191.94511"
     inkscape:document-units="px"
     inkscape:current-layer="g5151"
     showgrid="false"
     fit-margin-top="5"
     fit-margin-left="5"
     fit-margin-right="5"
     fit-margin-bottom="5"
     inkscape:window-width="1600"
     inkscape:window-height="848"
     inkscape:window-x="0"
     inkscape:window-y="0"
     inkscape:window-maximized="1" />
  <metadata
     id="metadata4383">
    <rdf:RDF>
      <cc:Work
         rdf:about="">
        <dc:format>image/svg+xml</dc:format>
        <dc:type
           rdf:resource="http://purl.org/dc/dcmitype/StillImage" />
        <dc:title></dc:title>
      </cc:Work>
    </rdf:RDF>
  </metadata>
  <g
     inkscape:label="Layer 1"
     inkscape:groupmode="layer"
     id="layer1"
     transform="translate(271.0137,-15.787272)">
    <g
       id="g5151"
       transform="translate(-473.47508,-879.88508)"
       inkscape:export-filename="/home/tobias/data/git/wodore-dev/logo/external/wodore_logo_g+.png"
       inkscape:export-xdpi="147.08482"
       inkscape:export-ydpi="147.08482">
      <circle
         style="color:#000000;clip-rule:nonzero;display:inline;overflow:visible;visibility:visible;opacity:1;isolation:auto;mix-blend-mode:normal;color-interpolation:sRGB;color-interpolation-filters:linearRGB;solid-color:#000000;solid-opacity:1;fill:#808080;fill-opacity:1;fill-rule:evenodd;stroke:none;stroke-width:5;stroke-linecap:round;stroke-linejoin:round;stroke-miterlimit:4;stroke-dasharray:none;stroke-dashoffset:0;stroke-opacity:0.84868421;filter:url(#filter4191);color-rendering:auto;image-rendering:auto;shape-rendering:auto;text-rendering:auto;enable-background:accumulate"
         id="path4146"
         cx="708.43005"
         cy="1105.0941"
         r="151.52289" />
      <g
         id="g4174"
         clip-path="url(#clipPath4178)">
        <path
           sodipodi:type="inkscape:offset"
           inkscape:radius="-9.9737949"
           inkscape:original="M -412.59375 141.8125 C -424.65812 143.30603 -440.51467 153.30136 -446.4375 158.5625 C -459.76527 163.62141 -474.83755 173.68076 -473.03125 189.90625 C -474.38445 208.33611 -468.84658 226.49304 -469.1875 244.8125 C -475.04411 258.72984 -494.97513 257.4025 -502.4375 271 C -511.1384 282.05989 -527.48672 291.36721 -524.09375 307.71875 C -521.45616 323.37095 -507.03573 332.05078 -497.625 343.5 C -488.35263 354.05182 -474.0393 359.94144 -460.03125 356.96875 C -450.23486 354.88891 -440.51935 359.30663 -444.6875 370.40625 C -444.51681 387.03448 -428.2632 395.09769 -413.5625 394.96875 C -401.60061 396.80568 -383.47347 393.60596 -384.03125 378.25 C -385.86127 362.83213 -373.20322 356.58596 -363.15625 348.9375 C -353.04382 337.74361 -356.32917 322.5562 -356.46875 309 C -356.02169 296.77221 -353.12122 283.50099 -359.34375 272.1875 C -362.77107 254.21673 -337.76582 260.21576 -331.1875 248.21875 C -322.9606 237.27261 -311.56042 228.38004 -305.15625 216.34375 C -300.15282 202.69189 -307.00828 186.50019 -319.71875 179.8125 C -331.16046 169.6521 -342.33528 154.43036 -359.46875 155.9375 C -375.15198 160.59078 -390.11509 152.24449 -402.3125 143.65625 C -404.98449 141.77489 -408.57229 141.31466 -412.59375 141.8125 z "
           style="opacity:1;fill:#b3b3b3;fill-opacity:1;stroke:#e6e6e6;stroke-width:4.77640963;stroke-miterlimit:4;stroke-opacity:1"
           id="path5146"
           d="m -408.69922,151.67969 c -0.52578,-0.0769 -1.38999,-0.1272 -2.66992,0.0312 -7.73725,0.95784 -24.44117,10.75179 -28.44531,14.30859 a 9.9747923,9.9747923 0 0 1 -3.08399,1.86719 c -5.77955,2.19378 -11.7648,5.54215 -15.48047,9.23437 -3.71566,3.69222 -5.28079,6.82593 -4.74023,11.68164 a 9.9747923,9.9747923 0 0 1 0.0352,1.83399 c -1.17265,15.97081 4.24972,33.91032 3.86914,54.36133 a 9.9747923,9.9747923 0 0 1 -0.7793,3.68359 c -4.54116,10.79137 -14.24506,15.22487 -20.99219,18.37891 -6.74713,3.15403 -10.84355,5.34275 -12.70703,8.73828 a 9.9747923,9.9747923 0 0 1 -0.90625,1.36719 c -5.38672,6.84716 -11.65962,11.89581 -15.50977,16.55859 -3.85014,4.66278 -5.19128,7.2799 -4.21874,11.9668 a 9.9747923,9.9747923 0 0 1 0.0703,0.36914 c 1.74815,10.37403 13.32365,17.70539 24.33789,31.10547 l -0.21289,-0.25 c 7.12714,8.11058 17.98826,12.42687 28.02929,10.29687 6.95671,-1.47696 14.32004,-1.18384 20.76758,3.41016 5.7844,4.1215 8.49189,12.86709 6.73242,20.65039 0.29549,4.42116 2.13351,7.03838 5.68555,9.48437 3.82394,2.63323 9.77277,4.28648 15.26758,4.23828 a 9.9747923,9.9747923 0 0 1 1.60156,0.11524 c 4.3751,0.67186 10.60176,0.2049 14.10156,-1.25781 3.49981,-1.46272 4.08493,-1.50614 3.94922,-5.24219 l 0.0625,0.81445 c -1.25084,-10.53829 3.13522,-19.76027 8.63086,-25.58789 5.1631,-5.47499 10.80658,-8.94937 15.17969,-12.16992 2.8128,-3.37904 3.87343,-7.08576 4.20312,-12.42774 0.34831,-5.64355 -0.44184,-12.59137 -0.51953,-20.13671 a 9.9747923,9.9747923 0 0 1 0.006,-0.46875 c 0.49498,-13.53853 2.35805,-24.35979 -1.64648,-31.64063 a 9.9747923,9.9747923 0 0 1 -1.05859,-2.9375 c -1.25581,-6.58468 0.43307,-13.8251 4.45898,-18.23437 4.0259,-4.40927 8.65066,-6.01734 12.4707,-7.3086 3.82004,-1.29125 7.19507,-2.2024 9.37305,-3.15429 2.17797,-0.9519 2.70894,-1.57927 2.9043,-1.93555 a 9.9747923,9.9747923 0 0 1 0.77343,-1.19727 c 9.13164,-12.14992 19.61801,-20.70855 24.80078,-29.97851 2.65055,-8.42264 -2.0609,-19.43012 -10.0039,-23.60938 a 9.9747923,9.9747923 0 0 1 -1.97852,-1.36914 c -6.36447,-5.65174 -11.8708,-11.77456 -17.1914,-15.85937 -5.28472,-4.05726 -9.55102,-5.97975 -14.95703,-5.53516 -19.68782,4.90016 -37.10986,-5.29513 -49.56446,-14.06445 0.0692,0.0487 -0.11875,-0.0539 -0.64453,-0.13086 z"
           transform="matrix(1.5230836,0,0,1.5230836,1341.3225,686.11567)" />
        <path
           style="fill:#000000;fill-opacity:1;stroke:none"
           d="m 716.41282,932.56068 c -6.0856,-0.3288 -9.29695,-0.57529 -18.27997,-0.3546 -6.18349,0.15178 -7.4926,3.36541 -7.20128,6.57298 l 0.72074,14.71774 c 0.30239,5.40957 -4.3222,10.61228 -9.72995,10.94613 l -20.63133,1.21631 c -2.26783,0.13406 -0.50461,-0.12396 -2.70276,0.45046 -2.19815,0.57385 -0.52344,-0.0447 -2.56763,0.9459 -2.04418,0.9913 -0.53055,0.0259 -2.34239,1.3965 -1.81185,1.37055 -0.51703,0.1946 -2.02708,1.89194 -1.51004,1.69733 -0.4713,0.24822 -1.62166,2.20718 -1.15035,1.95911 -0.3796,0.33197 -1.12615,2.47761 -0.74655,2.14563 -0.31652,0.40765 -0.63064,2.65765 -0.31413,2.24999 -0.2655,0.47972 -0.13507,2.74788 l 4.54965,77.65944 0,0.045 c 0.11936,2.1071 -0.11503,0.4925 0.45046,2.6576 0.57486,2.2008 -0.0473,0.5664 0.94597,2.6127 0.99319,2.0464 0.068,0.4842 1.44148,2.2974 1.37336,1.8132 0.14613,0.5166 1.84689,2.027 1.70075,1.5105 0.2445,0.4721 2.20725,1.6217 1.96276,1.1497 0.3282,0.3817 2.47754,1.1262 2.14934,0.7445 0.44947,0.3197 2.70276,0.6306 2.2533,0.311 0.43212,0.2699 2.70277,0.1355 0.015,0 0.03,0 0.045,0 l 20.76625,-1.2163 c 5.40961,-0.3023 10.61226,4.3223 10.9462,9.73 l 0.32891,2.5387 c 0.0213,0.2096 0.0363,0.42 0.045,0.6306 l 0,0.4054 c -0.0115,0.1655 -0.0261,0.3306 -0.045,0.4956 l -0.27027,5.6758 c -0.2439,5.3294 -5.20642,9.995 -10.54079,9.9101 l -57.74908,-1.036 c -2.2715,-0.042 -0.51168,-0.2213 -2.74781,0.1802 -2.23613,0.4014 -0.49764,-0.063 -2.61267,0.7659 -2.11503,0.8294 -0.51965,0.036 -2.43249,1.2612 -1.91284,1.2257 -0.52493,0.092 -2.16221,1.6667 l -39.50542,38.1541 c -1.63822,1.5785 -0.45814,0.2041 -1.7568,2.0721 -1.29865,1.868 -0.44221,0.3018 -1.35138,2.3874 -0.90916,2.0855 -0.37116,0.3897 -0.85587,2.6126 -0.48471,2.2229 -0.2737,0.4731 -0.31533,2.7479 -0.0417,2.2747 -0.17783,0.4636 0.22523,2.7028 0.40307,2.239 -0.11157,0.5403 0.72074,2.6576 0.83225,2.1174 0.0319,0.5182 1.26129,2.4325 1.22944,1.9143 0.13247,0.5247 1.71175,2.1622 l 38.06394,39.6406 c 1.58147,1.6369 0.20151,0.4601 2.07212,1.7569 1.87062,1.2966 0.29969,0.4448 2.38745,1.3513 2.08776,0.9064 0.3881,0.3744 2.61267,0.8558 2.22457,0.4815 0.47204,0.2324 2.74781,0.2703 l 54.32558,0.991 c 5.54524,0.1038 10.45631,5.3619 10.18041,10.9012 l -1.75679,37.9739 c 1.34473,5.9712 8.66298,-2.5713 18.06979,0.602 5.47827,1.8481 10.96038,7.2588 17.88683,7.4103 1.95884,-0.082 4.12323,0.1038 4.31414,-2.2915 l 2.56763,-43.6947 c 0.31074,-5.2833 5.24919,-9.8629 10.54078,-9.7751 l 20.00046,0.3604 c 2.26975,0.039 0.46896,0.224 2.70277,-0.1802 2.23381,-0.404 0.54535,0.065 2.65772,-0.7657 2.11236,-0.8315 0.52243,-0.035 2.43249,-1.2613 1.91005,-1.2268 0.52758,-0.091 2.16221,-1.6668 1.63463,-1.5752 0.46018,-0.2538 1.7568,-2.1171 1.29662,-1.8634 0.4424,-0.3073 1.35138,-2.3875 0.90898,-2.0802 0.32429,-0.3503 0.81083,-2.5675 0.47867,-2.1816 0.27846,-0.5965 0.31532,-2.7028 l 0,-0.045 1.44148,-77.7495 c 0.0428,-2.2751 0.22185,-0.5083 -0.18019,-2.7479 -0.40204,-2.2396 0.0656,-0.5397 -0.76578,-2.6577 -0.83142,-2.1181 -0.0324,-0.5175 -1.26129,-2.4324 -1.22882,-1.9152 -0.0878,-0.5239 -1.66671,-2.1623 -1.57896,-1.6385 -0.2488,-0.4581 -2.11716,-1.7568 -1.86837,-1.2988 -0.30153,-0.4423 -2.38745,-1.3514 -2.08591,-0.9092 -0.38944,-0.3264 -2.61267,-0.8108 -2.22323,-0.4845 -0.42771,-0.2741 -2.70276,-0.3153 l -14.82017,-0.2703 c -2.81251,-0.049 -5.5845,-1.2982 -7.48337,-3.3736 -1.89887,-2.0753 -2.89791,-4.947 -2.69704,-7.7528 l 0.045,-0.6756 c 0.007,-0.5895 0.0153,-0.3313 0,-0.4055 -0.006,-0.024 0.0149,0.061 0,-0.1355 l -1.31993,-10.6469 c -0.47584,-5.5099 4.20931,-10.9326 9.72996,-11.2615 l 52.79401,-3.1083 c 0.015,0 0.03,0 0.045,0 2.27175,-0.1297 0.49989,0.1197 2.70277,-0.4504 2.20287,-0.57 0.51835,0.043 2.56762,-0.9459 2.04928,-0.989 0.52555,-0.026 2.3424,-1.3965 1.7948,-1.3531 0.55286,-0.2383 1.98203,-1.8469 l 36.44228,-41.1271 c 0.015,0 0.03,0 0.045,0 1.50777,-1.6996 0.42899,-0.2463 1.57662,-2.2071 1.14763,-1.961 0.42771,-0.3307 1.1712,-2.4776 0.74348,-2.147 0.31983,-0.4521 0.63064,-2.7028 0.31081,-2.2506 0.22386,-0.4346 0.0901,-2.7028 -0.13377,-2.268 0.1678,-0.5042 -0.40541,-2.7027 -0.57322,-2.1986 0.0447,-0.523 -0.94597,-2.5676 -0.9907,-2.0447 -0.0714,-0.53 -1.44147,-2.3424 -1.37017,-1.81237 -0.14979,-0.51648 -1.84689,-2.02715 l -41.03699,-36.57742 0,0.0447 c -1.70122,-1.50663 -0.24499,-0.47554 -2.20725,-1.62166 -1.96227,-1.14612 -0.32951,-0.38444 -2.47754,-1.12608 -2.14803,-0.74164 -0.40634,-0.367 -2.65772,-0.67576 -2.25138,-0.30862 -0.47943,-0.22603 -2.74781,-0.0894 -0.015,1.4e-4 -0.03,1.4e-4 -0.045,0 l -56.35265,3.28843 c -5.32591,0.30805 -10.47917,-4.14539 -10.9462,-9.45967 l -0.8323,-9.79583 c -0.24251,-2.4854 1.19491,-8.40712 -12.60548,-9.15827 z"
           id="path5016"
           sodipodi:nodetypes="csccccssssssscccssssssssccccccccccsssccsssssssccsssccccscccccssssssscccsssssssccsccsccccsssscccssssssscccssssccccs"
           inkscape:connector-curvature="0" />
      </g>
      <path
         inkscape:connector-curvature="0"
         style="fill:#444444;fill-opacity:1;stroke:#000000;stroke-width:6.6419158;stroke-miterlimit:4;stroke-dasharray:none;stroke-opacity:1"
         d="m 671.67831,969.24232 a 18.991628,18.436483 0 0 0 -17.84078,19.48239 l 3.55805,58.76619 a 18.991628,18.436483 0 0 0 20.06896,17.3193 l 105.93756,-6.0446 a 18.991628,18.436483 0 0 0 13.08492,-6.1473 l 28.41393,-31.1058 a 18.991628,18.436483 0 0 0 -1.57647,-26.03751 L 791.3525,967.81468 a 18.991628,18.436483 0 0 0 -13.73662,-4.6169 l -105.93757,6.04454 z"
         id="path15895-7-0-0" />
      <path
         inkscape:connector-curvature="0"
         style="fill:#444444;fill-opacity:1;stroke:#000000;stroke-width:6.35275984;stroke-miterlimit:4;stroke-dasharray:none;stroke-opacity:1"
         d="m 752.05842,1196.4782 a 19.42978,16.485822 0 0 0 19.77957,-16.1765 l 1.14075,-52.6303 a 19.42978,16.485822 0 0 0 -19.06516,-16.7826 l -108.55031,-1.6939 a 19.42978,16.485822 0 0 0 -13.84601,4.6057 l -31.508,25.8323 a 19.42978,16.485822 0 0 0 -0.50542,23.3189 l 30.36721,26.7979 a 19.42978,16.485822 0 0 0 13.63706,5.0346 l 108.55031,1.6939 z"
         id="path15895-8-1-10-7" />
      <g
         transform="matrix(1.1997603,-0.06027421,0.05669007,1.1361932,1657.3117,787.47141)"
         style="font-style:normal;font-variant:normal;font-weight:normal;font-stretch:normal;font-size:102.42443848px;line-height:125%;font-family:'Nimbus Roman No9 L';-inkscape-font-specification:'Nimbus Roman No9 L';text-align:start;writing-mode:lr-tb;text-anchor:start;fill:#ffffff;fill-opacity:1;stroke:#ffffff;stroke-width:4.27509022;stroke-miterlimit:4;stroke-opacity:1"
         id="text17048-3-1-5-2">
        <path
           inkscape:connector-curvature="0"
           d="m -779.23861,136.04011 0,1.53636 c 3.48243,0.71697 4.50668,1.43395 4.50668,3.17516 0,1.53637 -0.61455,3.99456 -1.74122,6.76001 l -9.2182,22.73823 -8.60365,-22.94308 c -1.74121,-4.71152 -1.74121,-4.71152 -1.74121,-6.04304 0,-2.25333 1.12667,-2.97031 5.94061,-3.68728 l 0,-1.53636 -20.79216,0 0,1.53636 c 3.7897,0.4097 5.0188,1.53637 7.06729,7.06729 0.71697,1.94606 1.43394,3.89213 2.04849,5.73577 l -9.32063,20.38246 -10.14002,-26.73278 c -0.40969,-1.02424 -0.61454,-2.04849 -0.61454,-3.07273 0,-2.15091 1.22909,-2.97031 4.71152,-3.38001 l 0,-1.53636 -18.4364,0 0,1.53636 c 2.35576,0.20485 3.17516,1.2291 5.4285,6.45274 l 13.8273,35.02916 c 1.22909,3.07273 2.04849,4.50668 2.66303,4.50668 0.51212,0 1.33152,-1.33152 2.56061,-3.99456 l 11.47154,-24.58186 9.32062,24.17216 c 1.43394,3.78971 1.84364,4.40426 2.45819,4.40426 0.71697,0 1.2291,-0.92183 2.86788,-5.0188 l 14.13458,-35.43886 c 1.84363,-4.30182 2.15091,-4.81395 4.1994,-5.53092 l 0,-1.53636 -12.59821,0"
           style="fill:#ffffff;stroke:#ffffff"
           id="path4962-5" />
        <path
           inkscape:connector-curvature="0"
           d="m -738.09919,135.01586 c -13.31516,0 -22.6358,9.83276 -22.6358,23.96732 0,13.82729 9.52549,24.17217 22.43095,24.17217 12.90547,0 22.73823,-10.85701 22.73823,-24.99157 0,-13.41758 -9.42306,-23.14792 -22.53338,-23.14792 m -1.33152,2.86789 c 8.60365,0 14.6467,9.83276 14.6467,23.86489 0,11.57395 -4.60911,18.53882 -12.29094,18.53882 -3.99454,0 -7.78425,-2.45819 -9.93517,-6.55516 -2.86788,-5.32607 -4.50667,-12.49579 -4.50667,-19.76792 0,-9.73031 4.81395,-16.08063 12.08608,-16.08063"
           style="fill:#ffffff;stroke:#ffffff"
           id="path4964-9" />
      </g>
      <g
         transform="matrix(1.1042202,0.04223762,-0.04223762,1.1042202,1610.2211,824.54838)"
         style="font-style:normal;font-variant:normal;font-weight:normal;font-stretch:normal;font-size:75.23713684px;line-height:125%;font-family:'Nimbus Roman No9 L';-inkscape-font-specification:'Nimbus Roman No9 L';text-align:start;writing-mode:lr-tb;text-anchor:start;fill:#cccccc;fill-opacity:1;stroke:none"
         id="text17048-4-3-9">
        <path
           inkscape:connector-curvature="0"
           d="m -859.86836,349.0534 11.05986,-3.91233 0,-1.2038 c -1.35427,0.0752 -1.50475,0.0752 -1.73046,0.0752 -2.70853,0 -3.31043,-0.82761 -3.31043,-4.28852 l 0,-42.65945 -0.37619,-0.15048 c -3.61138,1.27903 -6.24469,2.0314 -11.05986,3.31043 l 0,1.2038 c 0.6019,-0.0752 1.05332,-0.0752 1.65522,-0.0752 2.78377,0 3.46091,0.75238 3.46091,3.8371 l 0,11.73699 c -2.85901,-2.40759 -4.89042,-3.2352 -7.8999,-3.2352 -8.65226,0 -15.64933,8.50181 -15.64933,19.18547 0,9.63035 5.6428,16.17599 13.91887,16.17599 4.21328,0 7.0723,-1.50475 9.63036,-5.04089 l 0,4.81518 0.30095,0.22571 m -0.30095,-8.42656 c 0,0.52666 -0.52666,1.4295 -1.27903,2.25711 -1.35427,1.50474 -3.2352,2.25712 -5.41708,2.25712 -6.24467,0 -10.38272,-6.01898 -10.38272,-15.27314 0,-8.50179 3.68662,-14.06935 9.40464,-14.06935 3.98756,0 7.67419,3.53615 7.67419,7.52372 l 0,17.30454"
           style="fill:#cccccc"
           id="path4953-4" />
        <path
           inkscape:connector-curvature="0"
           d="m -829.32209,313.69194 c -9.78081,0 -16.6274,7.22278 -16.6274,17.60549 0,10.15701 6.99706,17.75597 16.47693,17.75597 9.47987,0 16.70264,-7.97515 16.70264,-18.35786 0,-9.85606 -6.92182,-17.0036 -16.55217,-17.0036 m -0.97808,2.10664 c 6.31991,0 10.75891,7.22278 10.75891,17.53026 0,8.50178 -3.38568,13.61792 -9.02845,13.61792 -2.93425,0 -5.71803,-1.8057 -7.29801,-4.81518 -2.10663,-3.91233 -3.31043,-9.17894 -3.31043,-14.52077 0,-7.14752 3.53615,-11.81223 8.87798,-11.81223"
           style="fill:#cccccc"
           id="path4955-2" />
        <path
           inkscape:connector-curvature="0"
           d="m -809.98614,318.95854 c 1.05332,-0.22571 1.73045,-0.30095 2.6333,-0.30095 1.88092,0 2.55806,1.2038 2.55806,4.51423 l 0,18.80929 c 0,3.76185 -0.52666,4.28851 -5.34184,5.19136 l 0,1.12856 18.05692,0 0,-1.12856 c -5.11612,-0.22571 -6.39516,-1.35427 -6.39516,-5.64279 l 0,-16.92835 c 0,-2.40759 3.2352,-6.16945 5.2666,-6.16945 0.45142,0 1.12856,0.37619 1.95616,1.12856 1.2038,1.05332 2.03141,1.50474 3.00949,1.50474 1.80569,0 2.93425,-1.27903 2.93425,-3.38567 0,-2.48282 -1.57998,-3.98757 -4.13804,-3.98757 -3.15996,0 -5.34184,1.73046 -9.02846,7.07229 l 0,-6.92181 -0.37619,-0.15048 c -3.98756,1.65522 -6.69611,2.6333 -11.13509,4.06281 l 0,1.20379"
           style="fill:#cccccc"
           id="path4957-3" />
        <path
           inkscape:connector-curvature="0"
           d="m -754.68802,335.96213 c -3.61138,5.71802 -6.84659,7.8999 -11.66176,7.8999 -4.28851,0 -7.52371,-2.18188 -9.70559,-6.47039 -1.35427,-2.85901 -1.88093,-5.34184 -2.0314,-9.9313 l 23.17304,0 c -0.6019,-4.89041 -1.35427,-7.07229 -3.2352,-9.47988 -2.25711,-2.70853 -5.71803,-4.28852 -9.63035,-4.28852 -3.76186,0 -7.29801,1.35427 -10.15702,3.91233 -3.53614,3.08472 -5.56754,8.42657 -5.56754,14.59601 0,10.38271 5.41708,16.85312 14.06934,16.85312 7.14752,0 12.79032,-4.439 15.95027,-12.56461 l -1.20379,-0.52666 m -23.24828,-10.90938 c 0.82761,-5.86849 3.38568,-8.65227 7.97514,-8.65227 4.58946,0 6.39516,2.10665 7.37324,8.65227 l -15.34838,0"
           style="fill:#cccccc"
           id="path4959-0" />
      </g>
      <path
         style="color:#000000;font-style:normal;font-variant:normal;font-weight:normal;font-stretch:normal;font-size:medium;line-height:normal;font-family:sans-serif;text-indent:0;text-align:start;text-decoration:none;text-decoration-line:none;text-decoration-style:solid;text-decoration-color:#000000;letter-spacing:normal;word-spacing:normal;text-transform:none;direction:ltr;block-progression:tb;writing-mode:lr-tb;baseline-shift:baseline;text-anchor:start;white-space:normal;clip-rule:nonzero;display:inline;overflow:visible;visibility:visible;opacity:1;isolation:auto;mix-blend-mode:normal;color-interpolation:sRGB;color-interpolation-filters:linearRGB;solid-color:#000000;solid-opacity:1;fill:#b3b3b3;fill-opacity:1;fill-rule:nonzero;stroke:#cfcfcf;stroke-width:11;stroke-linecap:round;stroke-linejoin:miter;stroke-miterlimit:4;stroke-dasharray:none;stroke-dashoffset:0;stroke-opacity:1;color-rendering:auto;image-rendering:auto;shape-rendering:auto;text-rendering:auto;enable-background:accumulate"
         d="m 419.19776,1093.0136 c -2.3901,0.2501 -4.59433,1.3267 -6.20592,3.0434 l 0,0 -48.01982,51.2673 c -1.70723,1.8215 -2.29201,3.6923 -2.33605,5.2105 -0.0442,1.5182 0.41902,2.6688 0.68253,3.2024 0.26467,0.5352 0.8988,1.5998 2.13278,2.4832 1.23401,0.8837 3.07643,1.5483 5.55823,1.2888 l 6.38646,-0.6682 4.66943,44.7773 c 0.53702,5.1498 5.17193,8.9143 10.3131,8.3763 l 77.61308,-8.1207 c 5.14121,-0.5379 8.89937,-5.1805 8.36235,-10.3303 l -4.66216,-44.7078 -0.007,-0.07 6.38328,-0.6678 c 2.48162,-0.2596 4.14713,-1.2915 5.17217,-2.4115 1.02507,-1.1198 1.42608,-2.2926 1.57446,-2.871 0.1485,-0.5769 0.36396,-1.7978 0.007,-3.2746 -0.35668,-1.4766 -1.31733,-3.1887 -3.36437,-4.6173 0,0 -10.24465,-6.3424 -11.50858,-8.0432 -1.26394,-1.7007 -0.27633,-0.3439 -0.38758,-0.5337 -0.11078,-0.1896 -0.277,-0.5988 -0.277,-0.5988 l -1.85099,-17.7501 c -0.53704,-5.1498 -5.17191,-8.9144 -10.3131,-8.3765 l -8.48222,0.8876 c -3.6446,0.3813 -6.49813,2.8661 -7.71478,6.0922 l -17.02224,-11.895 c -1.93267,-1.3475 -4.31348,-1.9462 -6.70343,-1.6962 z"
         id="path4321"
         inkscape:connector-curvature="0"
         sodipodi:nodetypes="ccccscsscssssccsscsczzcssscccc"
         inkscape:export-filename="/home/tobias/git/mtn-huts/main/static/icons/hut-sac-default.png"
         inkscape:export-xdpi="96"
         inkscape:export-ydpi="96" />
      <path
         style="color:#000000;font-style:normal;font-variant:normal;font-weight:normal;font-stretch:normal;font-size:medium;line-height:normal;font-family:sans-serif;text-indent:0;text-align:start;text-decoration:none;text-decoration-line:none;text-decoration-style:solid;text-decoration-color:#000000;letter-spacing:normal;word-spacing:normal;text-transform:none;direction:ltr;block-progression:tb;writing-mode:lr-tb;baseline-shift:baseline;text-anchor:start;white-space:normal;clip-rule:nonzero;display:inline;overflow:visible;visibility:visible;opacity:1;isolation:auto;mix-blend-mode:normal;color-interpolation:sRGB;color-interpolation-filters:linearRGB;solid-color:#000000;solid-opacity:1;fill:#b3b3b3;fill-opacity:1;fill-rule:nonzero;stroke:#cfcfcf;stroke-width:11;stroke-linecap:round;stroke-linejoin:miter;stroke-miterlimit:4;stroke-dasharray:none;stroke-dashoffset:0;stroke-opacity:1;color-rendering:auto;image-rendering:auto;shape-rendering:auto;text-rendering:auto;enable-background:accumulate"
         d="m 995.64406,1034.1119 c -2.27625,-0.4021 -4.59913,0.01 -6.54334,1.1679 l -5.7e-4,0 -57.95587,34.6465 c -2.06036,1.2308 -3.09528,2.8044 -3.53737,4.1954 -0.44192,1.391 -0.31789,2.5766 -0.21507,3.1396 0.10312,0.5646 0.40847,1.7162 1.31615,2.8592 0.90764,1.1434 2.4359,2.2457 4.79947,2.6632 l 6.0827,1.0744 -7.51501,42.6083 c -0.8643,4.9003 2.42712,9.6064 7.32372,10.4713 l 26.52102,4.6847 c 3.83851,0.8184 7.69211,-1.5857 8.31694,-5.5459 l 3.48324,-19.7491 c 0.7952,-4.5086 5.06279,-7.4978 9.56782,-6.7022 l 9.52199,1.682 c 4.50492,0.7959 7.49202,5.0667 6.69682,9.5753 l -3.4768,19.7126 c -0.87695,4.9669 1.3697,7.41 5.9913,8.406 l 7.2985,0.9944 c 4.9269,0.6712 9.599,-2.4291 10.4633,-7.3294 l 7.5033,-42.542 0.011,-0.066 6.0796,1.0741 c 2.3637,0.4175 4.1765,-0.095 5.4205,-0.858 1.2439,-0.7629 1.9245,-1.7405 2.2147,-2.2354 0.2898,-0.4937 0.8116,-1.5649 0.872,-3.0236 0.06,-1.4587 -0.3754,-3.2952 -1.891,-5.1575 l -42.5989,-52.4057 c -1.43105,-1.7571 -3.47463,-2.9408 -5.75087,-3.3428 z"
         id="path4321-7"
         inkscape:connector-curvature="0"
         sodipodi:nodetypes="ccccccsscssccssssccssccsscscccc"
         inkscape:export-filename="/home/tobias/git/mtn-huts/main/static/icons/hut-private-default.png"
         inkscape:export-xdpi="96"
         inkscape:export-ydpi="96" />
      <path
         style="color:#000000;clip-rule:nonzero;display:inline;overflow:visible;visibility:visible;opacity:1;isolation:auto;mix-blend-mode:normal;color-interpolation:sRGB;color-interpolation-filters:linearRGB;solid-color:#000000;solid-opacity:1;fill:#b3b3b3;fill-opacity:1;fill-rule:nonzero;stroke:#cfcfcf;stroke-width:8;stroke-linecap:round;stroke-linejoin:round;stroke-miterlimit:4;stroke-dasharray:none;stroke-dashoffset:0;stroke-opacity:1;filter:url(#filter4644);color-rendering:auto;image-rendering:auto;shape-rendering:auto;text-rendering:auto;enable-background:accumulate"
         d="m 223.96739,1152.3089 c 60.36703,9.8452 60.36703,9.8452 60.36703,9.8452 l -19.98679,-65.9488 z"
         id="path4373"
         inkscape:connector-curvature="0"
         inkscape:export-filename="/home/tobias/git/mtn-huts/main/static/icons/biwak-sac-default.png"
         inkscape:export-xdpi="96"
         inkscape:export-ydpi="96" />
      <path
         style="color:#000000;clip-rule:nonzero;display:inline;overflow:visible;visibility:visible;opacity:0.8;isolation:auto;mix-blend-mode:normal;color-interpolation:sRGB;color-interpolation-filters:linearRGB;solid-color:#000000;solid-opacity:1;fill:#b3b3b3;fill-opacity:1;fill-rule:nonzero;stroke:#cfcfcf;stroke-width:8;stroke-linecap:round;stroke-linejoin:round;stroke-miterlimit:4;stroke-dasharray:none;stroke-dashoffset:0;stroke-opacity:1;filter:url(#filter4576);color-rendering:auto;image-rendering:auto;shape-rendering:auto;text-rendering:auto;enable-background:accumulate"
         d="m 1119.4454,1167.9943 c 79.9102,-8.9864 79.9102,-8.9864 79.9102,-8.9864 l -49.4702,-70.2959 z"
         id="path4373-5"
         inkscape:connector-curvature="0"
         inkscape:export-filename="/home/tobias/git/mtn-huts/main/static/icons/biwak-sac-default.png"
         inkscape:export-xdpi="96"
         inkscape:export-ydpi="96" />
      <path
         style="color:#000000;clip-rule:nonzero;display:inline;overflow:visible;visibility:visible;opacity:0.8;isolation:auto;mix-blend-mode:normal;color-interpolation:sRGB;color-interpolation-filters:linearRGB;solid-color:#000000;solid-opacity:1;fill:#f5f5f5;fill-opacity:1;fill-rule:nonzero;stroke:none;stroke-width:7;stroke-linecap:round;stroke-linejoin:round;stroke-miterlimit:4;stroke-dasharray:none;stroke-dashoffset:0;stroke-opacity:1;filter:url(#filter4592);color-rendering:auto;image-rendering:auto;shape-rendering:auto;text-rendering:auto;enable-background:accumulate"
         d="m 1145.0803,1160.8724 37.2419,-4.1881 c 0,0 -16.5178,-23.365 -22.2039,-22.6186 -5.0175,0.6586 -15.038,26.8067 -15.038,26.8067 z"
         id="hut-75-3-5"
         inkscape:connector-curvature="0"
         inkscape:export-filename="/home/tobias/git/mtn-huts/main/static/icons/biwak-sac-default.png"
         inkscape:export-xdpi="96"
         inkscape:export-ydpi="96"
         inkscape:label="#path4373-7"
         sodipodi:nodetypes="ccsc"
         inkscape:transform-center-x="-36.641429"
         inkscape:transform-center-y="-7.5856852" />
    </g>
  </g>
</svg>
