<svg xmlns="http://www.w3.org/2000/svg" xmlns:xlink="http://www.w3.org/1999/xlink" version="1.1" x="0px" y="0px" viewBox="0 0 512 640" enable-background="new 0 0 512 512" xml:space="preserve"><g><path d="M484.6,52.8h-50.8V12.2c0-5.6-4.5-10.2-10.2-10.2h-30.5C387.5,2,383,6.5,383,12.2v40.6h-50.8V12.2C332.2,6.6,327.7,2,322,2   h-30.5c-5.6,0-10.2,4.6-10.2,10.2v40.6h-50.8V12.2c0-5.6-4.5-10.2-10.2-10.2H190c-5.6,0-10.2,4.6-10.2,10.2v40.6H129V12.2   C129,6.5,124.5,2,118.8,2H88.4c-5.6,0-10.2,4.5-10.2,10.2v40.6H27.4C13.4,52.8,2,64.2,2,78.2v406.4c0,14,11.4,25.4,25.4,25.4h457.2   c14,0,25.4-11.4,25.4-25.4V78.2C510,64.2,498.6,52.8,484.6,52.8z M459.2,449c0,5.6-4.5,10.2-10.2,10.2H63   c-5.6,0-10.2-4.6-10.2-10.2V164.6c0-5.6,4.5-10.2,10.2-10.2H449c5.6,0,10.2,4.6,10.2,10.2V449z"/><path d="M299.4,212.6c-9.9-9.9-26-9.9-35.9,0c-9.9,9.9-9.9,26,0,35.9l32.8,32.8H154.4c-14,0-25.4,11.4-25.4,25.4   c0,14,11.4,25.4,25.4,25.4h141.9L263.4,365c-9.9,9.9-9.9,26,0,35.9c9.7,9.7,28.8,7.1,35.9,0l76.2-76.2c4.8-4.8,7.4-11.2,7.4-18   c0-6.7-2.7-13.2-7.4-18L299.4,212.6z"/></g><text x="0" y="527" fill="#000000" font-size="5px" font-weight="bold" font-family="'Helvetica Neue', Helvetica, Arial-Unicode, Arial, Sans-serif">Created by Icon Fair</text><text x="0" y="532" fill="#000000" font-size="5px" font-weight="bold" font-family="'Helvetica Neue', Helvetica, Arial-Unicode, Arial, Sans-serif">from the Noun Project</text></svg>