<!-- Created with Inkscape (http://www.inkscape.org/) -->
<svg xmlns:dc="http://purl.org/dc/elements/1.1/" xmlns:cc="http://creativecommons.org/ns#" xmlns:rdf="http://www.w3.org/1999/02/22-rdf-syntax-ns#" xmlns:svg="http://www.w3.org/2000/svg" xmlns="http://www.w3.org/2000/svg" xmlns:sodipodi="http://sodipodi.sourceforge.net/DTD/sodipodi-0.dtd" xmlns:inkscape="http://www.inkscape.org/namespaces/inkscape" width="35.237461mm" height="34.229523mm" viewBox="0 0 124.85714 121.28571" id="svg5008" version="1.1" inkscape:version="0.91 r" sodipodi:docname="hut-sac.svg">
  <defs id="defs5010"/>
  <sodipodi:namedview id="base" pagecolor="#ffffff" bordercolor="#666666" borderopacity="1.0" inkscape:pageopacity="0.0" inkscape:pageshadow="2" inkscape:zoom="7.777342" inkscape:cx="56.963169" inkscape:cy="68.438558" inkscape:document-units="px" inkscape:current-layer="layer1" showgrid="false" fit-margin-top="0" fit-margin-left="0" fit-margin-right="0" fit-margin-bottom="0" showguides="true" inkscape:guide-bbox="true" inkscape:window-width="1600" inkscape:window-height="848" inkscape:window-x="0" inkscape:window-y="0" inkscape:window-maximized="1"/>
  <metadata id="metadata5013">
    <rdf:RDF>
      <cc:Work rdf:about="">
        <dc:format>image/svg+xml</dc:format>
        <dc:type rdf:resource="http://purl.org/dc/dcmitype/StillImage"/>
        <dc:title/>
      </cc:Work>
    </rdf:RDF>
  </metadata>
  <g inkscape:label="Layer 1" inkscape:groupmode="layer" id="layer1" transform="translate(-243.28574,-414.75507)">
    <ellipse style="color:#000000;clip-rule:nonzero;display:inline;overflow:visible;visibility:visible;opacity:1;isolation:auto;mix-blend-mode:normal;color-interpolation:sRGB;color-interpolation-filters:linearRGB;solid-color:#000000;solid-opacity:1;fill:#cccccc;fill-opacity:1;fill-rule:nonzero;stroke:#b3b3b3;stroke-width:2;stroke-linecap:round;stroke-linejoin:miter;stroke-miterlimit:4;stroke-dasharray:none;stroke-dashoffset:0;stroke-opacity:1;color-rendering:auto;image-rendering:auto;shape-rendering:auto;text-rendering:auto;enable-background:accumulate" id="day3-back" cx="345.70599" cy="491.86511" rx="11.501462" ry="11.514347" inkscape:label="#path4660-1-2-9"/>
    <path inkscape:connector-curvature="0" style="color:#000000;clip-rule:nonzero;display:inline;overflow:visible;visibility:visible;opacity:1;isolation:auto;mix-blend-mode:normal;color-interpolation:sRGB;color-interpolation-filters:linearRGB;solid-color:#000000;solid-opacity:1;fill:#82cf06;fill-opacity:1;fill-rule:nonzero;stroke:#7ac206;stroke-width:2;stroke-linecap:round;stroke-linejoin:round;stroke-miterlimit:4;stroke-dasharray:none;stroke-dashoffset:0;stroke-opacity:1;color-rendering:auto;image-rendering:auto;shape-rendering:auto;text-rendering:auto;enable-background:accumulate" d="m 345.67703,480.29398 a 11.501462,11.514347 0 0 0 -11.50205,11.51547 11.501462,11.514347 0 0 0 0.30014,2.56319 l 13.68047,0 0,-13.79832 a 11.501462,11.514347 0 0 0 -2.47856,-0.28034 z" id="day3-25" inkscape:label="#path4660-7-4"/>
    <ellipse ry="11.514347" rx="11.501462" cy="491.86511" cx="265.70758" id="day0-back" style="color:#000000;clip-rule:nonzero;display:inline;overflow:visible;visibility:visible;opacity:1;isolation:auto;mix-blend-mode:normal;color-interpolation:sRGB;color-interpolation-filters:linearRGB;solid-color:#000000;solid-opacity:1;fill:#cccccc;fill-opacity:1;fill-rule:nonzero;stroke:#b3b3b3;stroke-width:2;stroke-linecap:round;stroke-linejoin:miter;stroke-miterlimit:4;stroke-dasharray:none;stroke-dashoffset:0;stroke-opacity:1;color-rendering:auto;image-rendering:auto;shape-rendering:auto;text-rendering:auto;enable-background:accumulate" inkscape:label="#path4660-1-2-9-5"/>
    <path inkscape:connector-curvature="0" style="color:#000000;clip-rule:nonzero;display:inline;overflow:visible;visibility:visible;opacity:1;isolation:auto;mix-blend-mode:normal;color-interpolation:sRGB;color-interpolation-filters:linearRGB;solid-color:#000000;solid-opacity:1;fill:#eab138;fill-opacity:1;fill-rule:nonzero;stroke:#e8a821;stroke-width:1.99999988;stroke-linecap:round;stroke-linejoin:round;stroke-miterlimit:4;stroke-dasharray:none;stroke-dashoffset:0;stroke-opacity:1;color-rendering:auto;image-rendering:auto;shape-rendering:auto;text-rendering:auto;enable-background:accumulate" d="m 267.13048,480.41595 a 12.922242,11.497447 0 0 0 -12.9229,11.49857 12.922242,11.497447 0 0 0 12.9229,11.49622 12.922242,11.497447 0 0 0 0.52214,-0.0165 l 0,-22.95479 a 12.922242,11.497447 0 0 0 -0.52214,-0.0235 z" id="day0-50" inkscape:label="#path4660-8-6"/>
    <path style="color:#000000;font-style:normal;font-variant:normal;font-weight:normal;font-stretch:normal;font-size:medium;line-height:normal;font-family:sans-serif;text-indent:0;text-align:start;text-decoration:none;text-decoration-line:none;text-decoration-style:solid;text-decoration-color:#000000;letter-spacing:normal;word-spacing:normal;text-transform:none;direction:ltr;block-progression:tb;writing-mode:lr-tb;baseline-shift:baseline;text-anchor:start;white-space:normal;clip-rule:nonzero;display:inline;overflow:visible;visibility:visible;opacity:1;isolation:auto;mix-blend-mode:normal;color-interpolation:sRGB;color-interpolation-filters:linearRGB;solid-color:#000000;solid-opacity:1;fill:#eab138;fill-opacity:1;fill-rule:nonzero;stroke:#e8a821;stroke-width:7;stroke-linecap:round;stroke-linejoin:miter;stroke-miterlimit:4;stroke-dasharray:none;stroke-dashoffset:0;stroke-opacity:1;color-rendering:auto;image-rendering:auto;shape-rendering:auto;text-rendering:auto;enable-background:accumulate" d="m 305.71328,426.38336 c -1.4078,0 -2.7575,0.49202 -3.8008,1.39257 l 0,0.002 -31.0938,26.89843 c -1.1054,0.95563 -1.5598,2.0083 -1.6777,2.88868 -0.118,0.88037 0.082,1.57782 0.2031,1.90429 0.1217,0.32741 0.4265,0.98518 1.0918,1.57422 0.6653,0.58905 1.6984,1.08789 3.1602,1.08789 l 3.7617,0 0,26.33008 c 0,3.02819 2.4718,5.49999 5.5,5.49999 l 45.7148,0 c 3.0282,0 5.5,-2.4718 5.5,-5.49999 l 0,-26.28906 0,-0.041 3.7598,0 c 1.4617,0 2.4948,-0.49884 3.1601,-1.08789 0.6653,-0.58904 0.9702,-1.24681 1.0918,-1.57422 0.1216,-0.32656 0.3213,-1.02367 0.2032,-1.90429 -0.1181,-0.88063 -0.5738,-1.93501 -1.6797,-2.89063 0,0 -5.5837,-4.31272 -6.2168,-5.37891 -0.6331,-1.06619 -0.1401,-0.21689 -0.1934,-0.33398 -0.053,-0.11709 -0.125,-0.36523 -0.125,-0.36523 l 0,-10.4375 c 0,-3.02819 -2.4718,-5.5 -5.5,-5.5 l -4.9961,0 c -2.1467,0 -3.9603,1.27167 -4.8652,3.07421 l -9.1953,-7.95507 c -1.0442,-0.90149 -2.395,-1.39454 -3.8027,-1.39453 z" id="hut-50" inkscape:connector-curvature="0" sodipodi:nodetypes="ccccscsscssssccsscsczzcssscccc" inkscape:export-filename="/home/tobias/git/mtn-huts/main/static/icons/hut-sac-full.png" inkscape:export-xdpi="96" inkscape:export-ydpi="96" inkscape:label="#path4321-5-2"/>
    <ellipse style="color:#000000;clip-rule:nonzero;display:inline;overflow:visible;visibility:visible;opacity:1;isolation:auto;mix-blend-mode:normal;color-interpolation:sRGB;color-interpolation-filters:linearRGB;solid-color:#000000;solid-opacity:1;fill:#cccccc;fill-opacity:1;fill-rule:nonzero;stroke:#b3b3b3;stroke-width:1.99999988;stroke-linecap:round;stroke-linejoin:miter;stroke-miterlimit:4;stroke-dasharray:none;stroke-dashoffset:0;stroke-opacity:1;color-rendering:auto;image-rendering:auto;shape-rendering:auto;text-rendering:auto;enable-background:accumulate" id="day2-back" cx="320.5376" cy="502.11667" rx="13" ry="13.009636" inkscape:label="#path4660-1-2"/>
    <ellipse style="color:#000000;clip-rule:nonzero;display:inline;overflow:visible;visibility:visible;opacity:1;isolation:auto;mix-blend-mode:normal;color-interpolation:sRGB;color-interpolation-filters:linearRGB;solid-color:#000000;solid-opacity:1;fill:#cccccc;fill-opacity:1;fill-rule:nonzero;stroke:#b3b3b3;stroke-width:2;stroke-linecap:round;stroke-linejoin:miter;stroke-miterlimit:4;stroke-dasharray:none;stroke-dashoffset:0;stroke-opacity:1;color-rendering:auto;image-rendering:auto;shape-rendering:auto;text-rendering:auto;enable-background:accumulate" id="day1-back" cx="290.86118" cy="502.11667" rx="13.009625" ry="13.000368" inkscape:label="#path4660-1"/>
    <path inkscape:connector-curvature="0" style="color:#000000;clip-rule:nonzero;display:inline;overflow:visible;visibility:visible;opacity:1;isolation:auto;mix-blend-mode:normal;color-interpolation:sRGB;color-interpolation-filters:linearRGB;solid-color:#000000;solid-opacity:1;fill:#82cf06;fill-opacity:1;fill-rule:nonzero;stroke:#7ac206;stroke-width:2;stroke-linecap:round;stroke-linejoin:round;stroke-miterlimit:4;stroke-dasharray:none;stroke-dashoffset:0;stroke-opacity:1;color-rendering:auto;image-rendering:auto;shape-rendering:auto;text-rendering:auto;enable-background:accumulate" d="m 320.55263,489.03967 a 13.001638,13.01343 0 0 0 -13.0023,13.0147 13.001638,13.01343 0 0 0 0.33929,2.8969 l 15.46486,0 0,-15.59476 a 13.001638,13.01343 0 0 0 -2.80185,-0.31684 z" id="day2-25" inkscape:label="#path4660-7-4"/>
    <path inkscape:connector-curvature="0" style="color:#000000;clip-rule:nonzero;display:inline;overflow:visible;visibility:visible;opacity:1;isolation:auto;mix-blend-mode:normal;color-interpolation:sRGB;color-interpolation-filters:linearRGB;solid-color:#000000;solid-opacity:1;fill:#e16f07;fill-opacity:1;fill-rule:nonzero;stroke:#ce6606;stroke-width:2;stroke-linecap:round;stroke-linejoin:round;stroke-miterlimit:4;stroke-dasharray:none;stroke-dashoffset:0;stroke-opacity:1;color-rendering:auto;image-rendering:auto;shape-rendering:auto;text-rendering:auto;enable-background:accumulate" d="m 290.83491,489.10506 a 13.000692,12.997276 0 0 0 -12.99862,12.99856 13.000692,12.997276 0 0 0 12.99862,12.99587 13.000692,12.997276 0 0 0 13.00135,-12.99587 13.000692,12.997276 0 0 0 -0.0903,-1.39081 l -8.13405,0 c -1.86563,0 -3.36798,-1.46025 -3.36798,-3.27357 l 0,-8.25174 a 13.000692,12.997276 0 0 0 -1.40904,-0.0823 z" id="day1-75" inkscape:label="#path4660-9-7"/>
    </g>
</svg>
