<!-- Created with Inkscape (http://www.inkscape.org/) -->
<svg xmlns:dc="http://purl.org/dc/elements/1.1/" xmlns:cc="http://creativecommons.org/ns#" xmlns:rdf="http://www.w3.org/1999/02/22-rdf-syntax-ns#" xmlns:svg="http://www.w3.org/2000/svg" xmlns="http://www.w3.org/2000/svg" xmlns:sodipodi="http://sodipodi.sourceforge.net/DTD/sodipodi-0.dtd" xmlns:inkscape="http://www.inkscape.org/namespaces/inkscape" width="35.237461mm" height="34.229523mm" viewBox="0 0 124.85714 121.28571" id="svg5008" version="1.1" inkscape:version="0.91 r" sodipodi:docname="hut-private.svg">
  <defs id="defs5010"/>
  <sodipodi:namedview id="base" pagecolor="#ffffff" bordercolor="#666666" borderopacity="1.0" inkscape:pageopacity="0.0" inkscape:pageshadow="2" inkscape:zoom="3.888671" inkscape:cx="130.70866" inkscape:cy="78.70987" inkscape:document-units="px" inkscape:current-layer="layer1" showgrid="false" fit-margin-top="0" fit-margin-left="0" fit-margin-right="0" fit-margin-bottom="0" showguides="true" inkscape:guide-bbox="true" inkscape:window-width="1600" inkscape:window-height="848" inkscape:window-x="0" inkscape:window-y="0" inkscape:window-maximized="1"/>
  <metadata id="metadata5013">
    <rdf:RDF>
      <cc:Work rdf:about="">
        <dc:format>image/svg+xml</dc:format>
        <dc:type rdf:resource="http://purl.org/dc/dcmitype/StillImage"/>
        <dc:title/>
      </cc:Work>
    </rdf:RDF>
  </metadata>
  <g inkscape:label="Layer 1" inkscape:groupmode="layer" id="layer1" transform="translate(-243.28574,-414.75507)">
    <ellipse style="color:#000000;clip-rule:nonzero;display:inline;overflow:visible;visibility:visible;opacity:1;isolation:auto;mix-blend-mode:normal;color-interpolation:sRGB;color-interpolation-filters:linearRGB;solid-color:#000000;solid-opacity:1;fill:#cccccc;fill-opacity:1;fill-rule:nonzero;stroke:#b3b3b3;stroke-width:2;stroke-linecap:round;stroke-linejoin:miter;stroke-miterlimit:4;stroke-dasharray:none;stroke-dashoffset:0;stroke-opacity:1;color-rendering:auto;image-rendering:auto;shape-rendering:auto;text-rendering:auto;enable-background:accumulate" id="day3-back" cx="345.70599" cy="491.86511" rx="11.501462" ry="11.514347" inkscape:label="#path4660-1-2-9"/>
    <path id="day3--1" style="color:#000000;clip-rule:nonzero;display:inline;overflow:visible;visibility:visible;opacity:1;isolation:auto;mix-blend-mode:normal;color-interpolation:sRGB;color-interpolation-filters:linearRGB;solid-color:#000000;solid-opacity:1;fill:#b3b3b3;fill-opacity:1;fill-rule:nonzero;stroke:#999999;stroke-width:2;stroke-linecap:round;stroke-linejoin:miter;stroke-miterlimit:4;stroke-dasharray:none;stroke-dashoffset:0;stroke-opacity:1;color-rendering:auto;image-rendering:auto;shape-rendering:auto;text-rendering:auto;enable-background:accumulate" d="m 352.69373,483.52193 -15.96706,15.61872 m 1.33838,-15.11872 15.23744,15.88129" inkscape:label="#path4968" inkscape:connector-curvature="0"/>
    <ellipse ry="11.514347" rx="11.501462" cy="491.86511" cx="265.70758" id="day0-back" style="color:#000000;clip-rule:nonzero;display:inline;overflow:visible;visibility:visible;opacity:1;isolation:auto;mix-blend-mode:normal;color-interpolation:sRGB;color-interpolation-filters:linearRGB;solid-color:#000000;solid-opacity:1;fill:#cccccc;fill-opacity:1;fill-rule:nonzero;stroke:#b3b3b3;stroke-width:2;stroke-linecap:round;stroke-linejoin:miter;stroke-miterlimit:4;stroke-dasharray:none;stroke-dashoffset:0;stroke-opacity:1;color-rendering:auto;image-rendering:auto;shape-rendering:auto;text-rendering:auto;enable-background:accumulate" inkscape:label="#path4660-1-2-9-5"/>
    <path inkscape:connector-curvature="0" style="color:#000000;clip-rule:nonzero;display:inline;overflow:visible;visibility:visible;opacity:1;isolation:auto;mix-blend-mode:normal;color-interpolation:sRGB;color-interpolation-filters:linearRGB;solid-color:#000000;solid-opacity:1;fill:#e16f07;fill-opacity:1;fill-rule:nonzero;stroke:#ce6606;stroke-width:2;stroke-linecap:round;stroke-linejoin:round;stroke-miterlimit:4;stroke-dasharray:none;stroke-dashoffset:0;stroke-opacity:1;color-rendering:auto;image-rendering:auto;shape-rendering:auto;text-rendering:auto;enable-background:accumulate" d="m 265.70637,480.36511 a 11.500625,11.500054 0 0 0 -11.49879,11.50118 11.500625,11.500054 0 0 0 11.49879,11.49882 11.500625,11.500054 0 0 0 11.50121,-11.49882 11.500625,11.500054 0 0 0 -0.0799,-1.23059 l -7.19551,0 c -1.65037,0 -2.97937,-1.29203 -2.97937,-2.89647 l 0,-7.30118 a 11.500625,11.500054 0 0 0 -1.24646,-0.0728 z" id="day0-75" inkscape:label="#path4660-9-7"/>
    <path style="color:#000000;font-style:normal;font-variant:normal;font-weight:normal;font-stretch:normal;font-size:medium;line-height:normal;font-family:sans-serif;text-indent:0;text-align:start;text-decoration:none;text-decoration-line:none;text-decoration-style:solid;text-decoration-color:#000000;letter-spacing:normal;word-spacing:normal;text-transform:none;direction:ltr;block-progression:tb;writing-mode:lr-tb;baseline-shift:baseline;text-anchor:start;white-space:normal;clip-rule:nonzero;display:inline;overflow:visible;visibility:visible;opacity:1;isolation:auto;mix-blend-mode:normal;color-interpolation:sRGB;color-interpolation-filters:linearRGB;solid-color:#000000;solid-opacity:1;fill:#e16f07;fill-opacity:1;fill-rule:nonzero;stroke:#ce6606;stroke-width:7;stroke-linecap:round;stroke-linejoin:miter;stroke-miterlimit:4;stroke-dasharray:none;stroke-dashoffset:0;stroke-opacity:1;color-rendering:auto;image-rendering:auto;shape-rendering:auto;text-rendering:auto;enable-background:accumulate" d="m 305.47361,425.91755 c -1.4077,0 -2.7574,0.49203 -3.8008,1.39258 l 0,0.002 -31.0937,26.89844 c -1.1055,0.95563 -1.5597,2.00829 -1.6777,2.88867 -0.1179,0.88037 0.082,1.57783 0.2031,1.9043 0.1216,0.32741 0.4265,0.98518 1.0918,1.57422 0.6653,0.58905 1.6984,1.08789 3.1601,1.08789 l 3.7618,0 0,26.33008 c 0,3.02819 2.4718,5.5 5.5,5.5 l 16.4013,0 c 2.3887,0.0844 4.4456,-1.76462 4.4014,-4.2041 l 0,-12.20411 c 0,-2.78604 2.2432,-5.02929 5.0293,-5.02929 l 5.8887,0 c 2.78601,0 5.02926,2.24325 5.02926,5.02929 l 0,12.18159 c -6e-4,3.06942 1.60529,4.29574 4.48242,4.4034 l 4.48242,-0.17678 c 3.02585,-0.11933 5.5,-2.47181 5.5,-5.5 l 0,-26.28907 0,-0.041 3.75977,0 c 1.4618,0 2.49485,-0.49884 3.16015,-1.08789 0.6653,-0.58904 0.9701,-1.24681 1.0918,-1.57422 0.1216,-0.32656 0.32122,-1.02368 0.20312,-1.9043 -0.1181,-0.88063 -0.57368,-1.935 -1.67968,-2.89062 l -31.09176,-26.89649 c -1.0442,-0.90149 -2.3951,-1.39454 -3.8028,-1.39453 z" id="hut-75" inkscape:connector-curvature="0" sodipodi:nodetypes="ccccccsscssccssssccssccsscscccc" inkscape:label="#path4321-7-6"/>
    <ellipse style="color:#000000;clip-rule:nonzero;display:inline;overflow:visible;visibility:visible;opacity:1;isolation:auto;mix-blend-mode:normal;color-interpolation:sRGB;color-interpolation-filters:linearRGB;solid-color:#000000;solid-opacity:1;fill:#cccccc;fill-opacity:1;fill-rule:nonzero;stroke:#b3b3b3;stroke-width:1.99999988;stroke-linecap:round;stroke-linejoin:miter;stroke-miterlimit:4;stroke-dasharray:none;stroke-dashoffset:0;stroke-opacity:1;color-rendering:auto;image-rendering:auto;shape-rendering:auto;text-rendering:auto;enable-background:accumulate" id="day2-back" cx="320.5376" cy="502.11667" rx="13" ry="13.009636" inkscape:label="#path4660-1-2"/>
    <ellipse style="color:#000000;clip-rule:nonzero;display:inline;overflow:visible;visibility:visible;opacity:1;isolation:auto;mix-blend-mode:normal;color-interpolation:sRGB;color-interpolation-filters:linearRGB;solid-color:#000000;solid-opacity:1;fill:#cccccc;fill-opacity:1;fill-rule:nonzero;stroke:#b3b3b3;stroke-width:2;stroke-linecap:round;stroke-linejoin:miter;stroke-miterlimit:4;stroke-dasharray:none;stroke-dashoffset:0;stroke-opacity:1;color-rendering:auto;image-rendering:auto;shape-rendering:auto;text-rendering:auto;enable-background:accumulate" id="day1-back" cx="290.86118" cy="502.11667" rx="13.009625" ry="13.000368" inkscape:label="#path4660-1"/>
    <path inkscape:connector-curvature="0" style="color:#000000;clip-rule:nonzero;display:inline;overflow:visible;visibility:visible;opacity:1;isolation:auto;mix-blend-mode:normal;color-interpolation:sRGB;color-interpolation-filters:linearRGB;solid-color:#000000;solid-opacity:1;fill:#eab138;fill-opacity:1;fill-rule:nonzero;stroke:#e8a821;stroke-width:2;stroke-linecap:round;stroke-linejoin:round;stroke-miterlimit:4;stroke-dasharray:none;stroke-dashoffset:0;stroke-opacity:1;color-rendering:auto;image-rendering:auto;shape-rendering:auto;text-rendering:auto;enable-background:accumulate" d="m 322.15881,489.09713 a 14.607735,12.99433 0 0 0 -14.60848,12.9956 14.607735,12.99433 0 0 0 14.60848,12.99294 14.607735,12.99433 0 0 0 0.59024,-0.0186 l 0,-25.94333 a 14.607735,12.99433 0 0 0 -0.59024,-0.0266 z" id="day2-50" inkscape:label="#path4660-8-6"/>
    <path inkscape:connector-curvature="0" style="color:#000000;clip-rule:nonzero;display:inline;overflow:visible;visibility:visible;opacity:1;isolation:auto;mix-blend-mode:normal;color-interpolation:sRGB;color-interpolation-filters:linearRGB;solid-color:#000000;solid-opacity:1;fill:#e16f07;fill-opacity:1;fill-rule:nonzero;stroke:#ce6606;stroke-width:2;stroke-linecap:round;stroke-linejoin:round;stroke-miterlimit:4;stroke-dasharray:none;stroke-dashoffset:0;stroke-opacity:1;color-rendering:auto;image-rendering:auto;shape-rendering:auto;text-rendering:auto;enable-background:accumulate" d="m 290.83491,489.10506 a 13.000692,12.997276 0 0 0 -12.99862,12.99856 13.000692,12.997276 0 0 0 12.99862,12.99587 13.000692,12.997276 0 0 0 13.00135,-12.99587 13.000692,12.997276 0 0 0 -0.0903,-1.39081 l -8.13405,0 c -1.86563,0 -3.36798,-1.46025 -3.36798,-3.27357 l 0,-8.25174 a 13.000692,12.997276 0 0 0 -1.40904,-0.0823 z" id="day1-75" inkscape:label="#path4660-9-7"/>
    </g>
</svg>
